<?xml version="1.0" encoding="iso-8859-1"?>
<!-- Generator: Adobe Illustrator 16.0.0, SVG Export Plug-In . SVG Version: 6.00 Build 0)  -->
<!DOCTYPE svg PUBLIC "-//W3C//DTD SVG 1.1//EN" "http://www.w3.org/Graphics/SVG/1.1/DTD/svg11.dtd">
<svg version="1.1" id="Capa_1" xmlns="http://www.w3.org/2000/svg" xmlns:xlink="http://www.w3.org/1999/xlink" x="0px" y="0px"
	 width="861.144px" height="861.144px" viewBox="0 0 861.144 861.144" style="enable-background:new 0 0 861.144 861.144;"
	 xml:space="preserve">
<g>
	<path d="M768.243,628.486c44.001-66.346,67.26-143.649,67.26-223.557c0-54.642-10.715-107.678-31.844-157.633
		c-20.396-48.225-49.588-91.525-86.759-128.696C679.729,81.43,636.43,52.24,588.204,31.842C538.249,10.713,485.213,0,430.571,0
		c-54.643,0-107.678,10.713-157.634,31.843c-48.225,20.398-91.524,49.587-128.695,86.759
		c-37.172,37.171-66.361,80.471-86.759,128.696c-21.129,49.956-31.843,102.991-31.843,157.633c0,46.664,7.883,92.431,23.431,136.031
		c15.024,42.134,36.846,81.294,64.857,116.393c27.735,34.751,60.747,64.539,98.119,88.534
		c38.072,24.445,79.622,42.192,123.493,52.748c4.128,0.993,8.259,1.469,12.324,1.469c23.705,0,45.21-16.167,51-40.229
		c6.783-28.19-10.569-56.542-38.761-63.325c-64.292-15.47-122.573-52.651-164.108-104.694
		c-20.752-26.001-36.909-54.989-48.024-86.161c-11.5-32.25-17.331-66.15-17.331-100.764c0-80.114,31.198-155.434,87.848-212.083
		c56.65-56.649,131.969-87.848,212.083-87.848c80.114,0,155.435,31.198,212.083,87.848c56.649,56.65,87.849,131.969,87.849,212.083
		c0,59.198-17.208,116.436-49.765,165.522c-28.054,42.3-66.007,76.562-110.546,100.007v-58.027c0-28.995-23.505-52.5-52.5-52.5
		s-52.5,23.505-52.5,52.5v196.21c0,28.995,23.505,52.5,52.5,52.5h198.883c28.995,0,52.5-23.505,52.5-52.5s-23.505-52.5-52.5-52.5
		h-84.327C686.687,724.866,733.203,681.32,768.243,628.486z"/>
</g>
<g>
</g>
<g>
</g>
<g>
</g>
<g>
</g>
<g>
</g>
<g>
</g>
<g>
</g>
<g>
</g>
<g>
</g>
<g>
</g>
<g>
</g>
<g>
</g>
<g>
</g>
<g>
</g>
<g>
</g>
</svg>
